<svg width="198" height="36" viewBox="0 0 198 36" fill="none" xmlns="http://www.w3.org/2000/svg">
<path d="M27.8718 3H24V19H27.8718V3Z" fill="#4D64AE"/>
<path d="M175 3H171.128V19H175V3Z" fill="#4D64AE"/>
<path d="M27.8718 0V3L171.128 3V0L27.8718 0Z" fill="#4D64AE"/>
<path d="M27.8718 19V22L171.128 22V19L27.8718 19Z" fill="#4D64AE"/>
<path d="M39.4872 4H30.453V18H39.4872V4Z" fill="#CA3C32"/>
<path d="M51.1026 4H42.0684V18H51.1026V4Z" fill="#CA3C32"/>
<path d="M62.718 4H53.6838V18H62.718V4Z" fill="#399746"/>
<path d="M74.3333 4H65.2991V18H74.3333V4Z" fill="#399746"/>
<path d="M85.9487 4H76.9145V18H85.9487V4Z" fill="#9259A3"/>
<path d="M97.5641 4H88.5299V18H97.5641V4Z" fill="#9259A3"/>
<path d="M192 35V34H194V29H193V28H196V34H198V35H192Z" fill="#4D64AE"/>
<path d="M187 29V28H189V29H187ZM184 36V35H187V31H186V30H189V35H188V36H184Z" fill="#4D64AE"/>
<path d="M177 35V33H179V35H177Z" fill="#4D64AE"/>
<path d="M170 31H171V32H170V35H168V30H170V31ZM174 30V31H171V30H174Z" fill="#4D64AE"/>
<path d="M160 35V34H159V33H160V32H164V31H160V30H165V31H166V35H160ZM161 34H164V33H161V34Z" fill="#4D64AE"/>
<path d="M151 35V28H157V29H158V31H157V32H158V34H157V35H151ZM153 31H156V29H153V31ZM153 34H156V32H153V34Z" fill="#4D64AE"/>
<path d="M143 35V34H148V33H144V32H143V31H144V30H149V31H145V32H149V33H150V34H149V35H143Z" fill="#4D64AE"/>
<path d="M135 35V34H140V33H136V32H135V31H136V30H141V31H137V32H141V33H142V34H141V35H135Z" fill="#4D64AE"/>
<path d="M128 35V34H127V31H128V30H133V31H134V33H129V34H133V35H128ZM129 32H132V31H129V32Z" fill="#4D64AE"/>
<path d="M122 31H123V32H122V35H120V30H122V31ZM126 30V31H123V30H126Z" fill="#4D64AE"/>
<path d="M112 36V35H116V34H112V33H111V31H112V30H118V35H117V36H112ZM113 33H116V31H113V33Z" fill="#4D64AE"/>
<path d="M104 35V34H103V31H104V30H109V31H110V34H109V35H104ZM105 34H108V31H105V34Z" fill="#4D64AE"/>
<path d="M98 31H99V32H98V35H96V30H98V31ZM102 30V31H99V30H102Z" fill="#4D64AE"/>
<path d="M87 35V28H93V29H94V32H93V33H89V35H87ZM89 32H92V29H89V32Z" fill="#4D64AE"/>
<path d="M80 35V34H82V29H81V28H84V34H86V35H80Z" fill="#4D64AE"/>
<path d="M72 35V34H71V33H72V32H76V31H72V30H77V31H78V35H72ZM73 34H76V33H73V34Z" fill="#4D64AE"/>
<path d="M66 35V31H64V30H66V28H68V30H70V31H68V35H66Z" fill="#4D64AE"/>
<path d="M55 35V30H61V31H62V35H60V31H57V35H55Z" fill="#4D64AE"/>
<path d="M48 35V34H47V31H48V30H53V31H54V33H49V34H53V35H48ZM49 32H52V31H49V32Z" fill="#4D64AE"/>
<path d="M39 35V30H45V31H46V35H44V31H43V35H41V31H40V35H39Z" fill="#4D64AE"/>
<path d="M32 35V34H31V31H32V30H37V31H38V33H33V34H37V35H32ZM33 32H36V31H33V32Z" fill="#4D64AE"/>
<path d="M26 31H27V32H26V35H24V30H26V31ZM30 30V31H27V30H30Z" fill="#4D64AE"/>
<path d="M16 35V34H15V31H16V30H22V31H17V34H22V35H16Z" fill="#4D64AE"/>
<path d="M7 35V30H13V31H14V35H12V31H9V35H7Z" fill="#4D64AE"/>
<path d="M0 35V34H2V29H0V28H6V29H4V34H6V35H0Z" fill="#4D64AE"/>
</svg>
